<svg width="32" height="32" viewBox="0 0 32 32" fill="none" xmlns="http://www.w3.org/2000/svg">
<g clip-path="url(#clip0_7568_245)">
<path d="M20.1541 31.0245L20.4609 25.9119L21.3081 24.4657C21.3081 24.4657 19.3799 25.2545 16.1517 25.2545C12.9234 25.2545 11.0244 24.4803 11.0244 24.4803L11.9739 26.0579L12.3098 31.0245C12.3098 31.557 14.0657 31.9886 16.232 31.9886C18.3981 31.9886 20.1541 31.557 20.1541 31.0245V31.0245ZM19.1862 7.1492L19.8303 4.60362L23.3967 0.850915L22.4567 0.050293L18.6809 4.04786L17.9332 7.08916C17.3704 7.0703 16.8073 7.06094 16.2442 7.06106C12.2676 7.06106 9.04395 7.51426 9.04395 8.07319C9.04395 8.63217 12.2676 9.08532 16.2442 9.08532C20.2208 9.08532 23.4444 8.63217 23.4444 8.07319C23.4444 7.6616 21.696 7.30734 19.1862 7.1492" fill="#754FFE"/>
<path d="M18.8113 8.57486C18.8113 8.57486 18.6718 8.60612 18.2615 8.60788C17.8511 8.60957 17.5597 8.60522 17.4436 8.4995C17.4124 8.47112 17.3953 8.41475 17.3955 8.37659C17.3958 8.30394 17.4474 8.26114 17.5131 8.23434L17.5752 8.33181C17.5482 8.34114 17.5328 8.35217 17.5327 8.36392C17.5325 8.4191 17.9524 8.45687 18.2735 8.4528C18.5947 8.44884 18.9828 8.42238 18.9831 8.36799C18.9831 8.35154 18.9538 8.33605 18.9027 8.32384L18.9646 8.22705C19.0478 8.25289 19.1204 8.30281 19.1203 8.3892C19.1195 8.53608 18.9326 8.55841 18.8113 8.57486" fill="white"/>
<path d="M23.3892 0.858574C23.4788 0.754998 23.3427 0.490067 23.0852 0.266916C22.8276 0.0438787 22.546 -0.0530254 22.4562 0.05055C22.3665 0.154125 22.5026 0.419057 22.7602 0.642094C23.0178 0.865189 23.2994 0.962206 23.3892 0.858574ZM19.9821 18.5366C19.8975 17.7233 21.7608 16.5456 21.2826 16.5078C20.2532 16.5667 19.7409 17.7142 19.2229 18.9161C19.0331 19.3566 18.3837 21.2348 17.9577 21.0036C17.5319 20.7725 18.5098 19.2279 18.7839 18.3107C18.4677 18.5426 17.3078 19.4437 17.0089 18.5998C16.5283 19.008 15.5014 19.2291 15.6173 18.157C15.3616 18.6098 14.7878 19.2421 14.0991 18.9794C13.1946 18.6344 14.6232 15.7532 14.9784 15.8986C15.3337 16.0439 14.9067 16.7002 14.7949 16.9551C14.549 17.516 14.2649 18.2211 14.4547 18.3655C14.7798 18.6128 15.6646 17.43 15.6843 17.404C15.8498 17.1853 16.3212 15.755 16.7012 15.9192C17.0812 16.0835 15.7534 17.972 16.2499 18.3468C16.35 18.4224 16.7597 18.3001 17.0089 18.0305C17.1701 17.8561 17.1147 17.4698 17.6522 16.188C18.1897 14.9062 18.6687 13.31 19.0373 13.4316C19.4059 13.5531 19.1021 14.3724 18.9699 14.6778C18.3493 16.1112 17.2763 18.4794 17.7823 18.3001C18.2884 18.1209 18.5519 18.1104 19.0474 17.5305C19.543 16.9506 19.5202 15.9954 19.8504 16.0157C20.1808 16.036 20.1254 16.3423 20.0453 16.5755C20.3704 16.2035 21.5862 15.42 21.8798 16.196C22.2275 17.1147 20.1402 18.4416 20.6606 18.374C21.168 18.308 21.9901 17.7873 22.3411 17.3139L23.3072 8.62843C23.3072 8.62843 22.335 9.43294 16.1502 9.43294C9.96533 9.43294 9.09375 8.64516 9.09375 8.64516L9.91625 16.573C10.3528 15.3322 11.3896 12.8224 13.0237 12.9066C13.7671 12.945 14.7594 14.3763 13.9094 14.4248C13.5496 14.4453 13.513 13.7103 13.087 13.6024C12.7795 13.5245 12.3515 13.7745 12.0748 14.0453C11.5231 14.5852 10.3366 16.7154 10.4934 17.7775C10.6931 19.1315 12.3618 17.307 12.6442 16.7653C12.843 16.3837 12.9773 15.2532 13.4122 15.3719C13.8472 15.4905 13.3743 16.6572 13.059 17.6887C12.7049 18.8469 12.5187 20.0688 12.0748 19.9282C11.6309 19.7878 12.354 18.2925 12.3278 18.0305C11.9106 18.4155 11.1419 19.39 10.1585 18.9077L10.6693 23.8308C10.6693 23.8308 12.027 24.9034 16.1167 24.9034C20.2064 24.9034 21.6143 23.8475 21.6143 23.8475L22.2486 18.1454C21.7296 18.6507 20.0872 19.5481 19.9821 18.5366" fill="#754FFE"/>
</g>
<defs>
<clipPath id="clip0_7568_245">
<rect width="14.4768" height="32" fill="white" transform="translate(9)"/>
</clipPath>
</defs>
</svg>
