<svg width="32" height="32" viewBox="0 0 32 32" fill="none" xmlns="http://www.w3.org/2000/svg">
<g clip-path="url(#clip0_7568_242)">
<path d="M12.75 14.2499V9.31592H16.31C18.256 9.31592 19.394 10.2299 19.394 11.7899C19.394 13.3939 18.186 14.2499 15.866 14.2499H12.75ZM12.75 21.7739H16.546C18.914 21.7739 20.166 20.8139 20.166 19.0199C20.166 17.2499 18.866 16.3239 16.394 16.3239H12.75V21.7739Z" fill="#754FFE"/>
<path d="M8.00391 0C5.88217 0 3.84734 0.842855 2.34705 2.34315C0.846761 3.84344 0.00390625 5.87827 0.00390625 8V24C0.00390625 26.1217 0.846761 28.1566 2.34705 29.6569C3.84734 31.1571 5.88217 32 8.00391 32H24.0039C26.1256 32 28.1605 31.1571 29.6608 29.6569C31.1611 28.1566 32.0039 26.1217 32.0039 24V8C32.0039 5.87827 31.1611 3.84344 29.6608 2.34315C28.1605 0.842855 26.1256 0 24.0039 0L8.00391 0ZM10.1239 24V7.09H16.9219C20.0959 7.09 22.0079 8.708 22.0079 11.31C22.0079 13.078 20.7079 14.66 19.0419 14.942V15.142C21.3279 15.376 22.8499 17.004 22.8499 19.208C22.8499 22.184 20.6819 24 17.0739 24H10.1239Z" fill="#754FFE"/>
</g>
<defs>
<clipPath id="clip0_7568_242">
<rect width="32" height="32" fill="white"/>
</clipPath>
</defs>
</svg>
