<svg width="32" height="32" viewBox="0 0 32 32" fill="none" xmlns="http://www.w3.org/2000/svg">
<g clip-path="url(#clip0_7568_252)">
<path fill-rule="evenodd" clip-rule="evenodd" d="M0.999607 12C0.849973 12.0001 0.702261 12.0337 0.567356 12.0984C0.432452 12.1632 0.313796 12.2574 0.220133 12.3741C0.126471 12.4907 0.0601905 12.627 0.0261774 12.7727C-0.00783567 12.9184 -0.00871417 13.0699 0.0236067 13.216L3.32761 28.084C3.57423 29.1945 4.19215 30.1877 5.07937 30.8997C5.96658 31.6116 7.07005 31.9998 8.20761 32H19.7916C20.9292 31.9998 22.0326 31.6116 22.9198 30.8997C23.8071 30.1877 24.425 29.1945 24.6716 28.084L24.9336 26.904C26.4635 27.1901 28.0446 26.8706 29.3433 26.0129C30.642 25.1552 31.5566 23.8264 31.894 22.307C32.2314 20.7876 31.9652 19.1966 31.1517 17.8698C30.3381 16.543 29.0408 15.5843 27.5336 15.196L27.9756 13.216C28.0079 13.0699 28.007 12.9184 27.973 12.7727C27.939 12.627 27.8727 12.4907 27.7791 12.3741C27.6854 12.2574 27.5668 12.1632 27.4319 12.0984C27.297 12.0337 27.1492 12.0001 26.9996 12H0.999607ZM25.9996 25C25.7879 25.0001 25.5766 24.9834 25.3676 24.95L27.1016 17.154C28.0266 17.4219 28.824 18.0144 29.3474 18.8227C29.8709 19.631 30.0853 20.601 29.9514 21.5546C29.8174 22.5083 29.3441 23.3817 28.6182 24.0145C27.8923 24.6474 26.9626 24.9973 25.9996 25Z" fill="#754FFE"/>
<path d="M8.8 1.59994L8.794 1.60794L8.766 1.64594C8.62048 1.84618 8.48433 2.05307 8.358 2.26594C8.25068 2.43658 8.15641 2.61509 8.076 2.79994C8.024 2.91994 8.008 2.98394 8.002 3.00594V3.01394C8.02506 3.19074 8.08724 3.36018 8.184 3.50994C8.334 3.77594 8.54 4.05394 8.8 4.39994L8.82 4.42394C9.056 4.73994 9.34 5.11794 9.56 5.50994C9.784 5.90994 10 6.41994 10 6.99994C10 7.37594 9.87 7.73594 9.762 7.98794C9.6464 8.25609 9.51137 8.51545 9.358 8.76394C9.2011 9.0262 9.03225 9.28114 8.852 9.52794L8.816 9.57794L8.806 9.59394L8.802 9.59794C8.64314 9.81038 8.40639 9.951 8.14384 9.98889C7.88129 10.0268 7.61444 9.9588 7.402 9.79994C7.18956 9.64107 7.04893 9.40432 7.01105 9.14177C6.97317 8.87922 7.04114 8.61238 7.2 8.39994L7.206 8.39194L7.234 8.35394C7.37952 8.15369 7.51567 7.94681 7.642 7.73394C7.74932 7.5633 7.84359 7.38479 7.924 7.19994C7.976 7.07994 7.992 7.01594 7.998 6.99394C7.97671 6.81453 7.91517 6.64225 7.818 6.48994C7.63235 6.17965 7.42588 5.8823 7.2 5.59994L7.18 5.57594C6.90979 5.23055 6.66259 4.86777 6.44 4.48994C6.16759 4.03939 6.01604 3.52619 6 2.99994C6 2.62394 6.13 2.26394 6.238 2.01194C6.356 1.73594 6.506 1.46394 6.642 1.23594C6.80088 0.974921 6.96967 0.720069 7.148 0.471938L7.198 0.401938C7.35686 0.189499 7.59361 0.0488704 7.85616 0.010988C8.11872 -0.0268943 8.38556 0.0410728 8.598 0.199938C8.81044 0.358802 8.95107 0.595551 8.98895 0.858102C9.02683 1.12065 8.95886 1.3875 8.8 1.59994ZM14.8 1.59994L14.794 1.60794L14.766 1.64594C14.6205 1.84618 14.4843 2.05307 14.358 2.26594C14.2507 2.43658 14.1564 2.61509 14.076 2.79994C14.024 2.91994 14.008 2.98394 14.002 3.00594V3.01394C14.0251 3.19074 14.0872 3.36018 14.184 3.50994C14.334 3.77594 14.54 4.05394 14.8 4.39994L14.82 4.42394C15.056 4.73994 15.34 5.11794 15.56 5.50994C15.784 5.90994 16 6.41994 16 6.99994C16 7.37594 15.87 7.73594 15.762 7.98794C15.6464 8.25609 15.5114 8.51545 15.358 8.76394C15.2011 9.0262 15.0323 9.28114 14.852 9.52794L14.816 9.57794L14.806 9.59394L14.802 9.59794C14.6431 9.81038 14.4064 9.951 14.1438 9.98889C13.8813 10.0268 13.6144 9.9588 13.402 9.79994C13.1896 9.64107 13.0489 9.40432 13.0111 9.14177C12.9732 8.87922 13.0411 8.61238 13.2 8.39994L13.206 8.39194L13.234 8.35394C13.3795 8.15369 13.5157 7.94681 13.642 7.73394C13.7493 7.5633 13.8436 7.38479 13.924 7.19994C13.976 7.07994 13.992 7.01594 13.998 6.99394C13.9767 6.81453 13.9152 6.64225 13.818 6.48994C13.6323 6.17965 13.4259 5.8823 13.2 5.59994L13.18 5.57594C12.9098 5.23055 12.6626 4.86777 12.44 4.48994C12.1676 4.03939 12.016 3.52619 12 2.99994C12 2.62394 12.13 2.26394 12.238 2.01194C12.356 1.73594 12.506 1.46394 12.642 1.23594C12.8009 0.974921 12.9697 0.720069 13.148 0.471938L13.198 0.401938C13.3569 0.189499 13.5936 0.0488704 13.8562 0.010988C14.1187 -0.0268943 14.3856 0.0410728 14.598 0.199938C14.8104 0.358802 14.9511 0.595551 14.9889 0.858102C15.0268 1.12065 14.9589 1.3875 14.8 1.59994ZM20.8 1.59994L20.794 1.60794L20.766 1.64594C20.6205 1.84618 20.4843 2.05307 20.358 2.26594C20.2507 2.43658 20.1564 2.61509 20.076 2.79994C20.024 2.91994 20.008 2.98394 20.002 3.00594V3.01394C20.0251 3.19074 20.0872 3.36018 20.184 3.50994C20.334 3.77594 20.54 4.05394 20.8 4.39994L20.82 4.42394C21.056 4.73994 21.34 5.11794 21.56 5.50994C21.784 5.90994 22 6.41994 22 6.99994C22 7.37594 21.87 7.73594 21.762 7.98794C21.6464 8.25609 21.5114 8.51545 21.358 8.76394C21.2017 9.02616 21.0336 9.2811 20.854 9.52794L20.816 9.57794L20.806 9.59394L20.802 9.59794C20.6431 9.81038 20.4064 9.951 20.1438 9.98889C19.8813 10.0268 19.6144 9.9588 19.402 9.79994C19.1896 9.64107 19.0489 9.40432 19.0111 9.14177C18.9732 8.87922 19.0411 8.61238 19.2 8.39994L19.206 8.39194L19.234 8.35394C19.3795 8.15369 19.5157 7.94681 19.642 7.73394C19.7493 7.5633 19.8436 7.38479 19.924 7.19994C19.976 7.07994 19.992 7.01594 19.998 6.99394C19.9767 6.81453 19.9152 6.64225 19.818 6.48994C19.6324 6.17965 19.4259 5.8823 19.2 5.59994L19.18 5.57594C18.9098 5.23055 18.6626 4.86777 18.44 4.48994C18.1676 4.03939 18.016 3.52619 18 2.99994C18 2.62394 18.13 2.26394 18.238 2.01194C18.356 1.73594 18.506 1.46394 18.642 1.23594C18.8009 0.974921 18.9697 0.720069 19.148 0.471938L19.198 0.401938C19.3569 0.189499 19.5936 0.0488704 19.8562 0.010988C20.1187 -0.0268943 20.3856 0.0410728 20.598 0.199938C20.8104 0.358802 20.9511 0.595551 20.9889 0.858102C21.0268 1.12065 20.9589 1.3875 20.8 1.59994Z" fill="#754FFE"/>
</g>
<defs>
<clipPath id="clip0_7568_252">
<rect width="32" height="32" fill="white"/>
</clipPath>
</defs>
</svg>
