<svg width="32" height="32" viewBox="0 0 32 32" fill="none" xmlns="http://www.w3.org/2000/svg">
<g clip-path="url(#clip0_7568_237)">
<path d="M27.5378 17.7876C26.419 17.7939 25.4503 18.0626 24.6378 18.4627C24.3378 17.8689 24.0378 17.3501 23.9879 16.9627C23.9316 16.5127 23.8629 16.2376 23.9316 15.7002C24.0003 15.1626 24.3128 14.4001 24.3128 14.3376C24.3065 14.2813 24.244 14.0063 23.6003 14.0001C22.9566 13.9938 22.4003 14.1251 22.3378 14.2938C22.2753 14.4626 22.1503 14.8501 22.0691 15.2501C21.9566 15.8376 20.7816 17.9188 20.1128 19.0126C19.8941 18.5876 19.7066 18.2126 19.669 17.9125C19.6128 17.4626 19.544 17.1875 19.6128 16.6501C19.6816 16.1125 19.9941 15.3501 19.9941 15.2876C19.9878 15.2313 19.9253 14.9563 19.2816 14.9501C18.6378 14.9438 18.0816 15.0751 18.0191 15.2438C17.9566 15.4126 17.8879 15.8126 17.7504 16.2001C17.6191 16.5876 16.0566 20.0626 15.6503 20.9688C15.4441 21.4313 15.2629 21.8001 15.1316 22.0501C15.0003 22.3001 15.1253 22.0688 15.1128 22.0938C15.0003 22.3063 14.9378 22.4251 14.9378 22.4251V22.4314C14.8503 22.5877 14.7566 22.7376 14.7128 22.7376C14.6815 22.7376 14.619 22.3188 14.7253 21.7439C14.9565 20.5376 15.519 18.6564 15.5128 18.5877C15.5128 18.5564 15.619 18.2251 15.1503 18.0564C14.694 17.8877 14.5316 18.1689 14.494 18.1689C14.4565 18.1689 14.4253 18.2689 14.4253 18.2689C14.4253 18.2689 14.9315 16.1502 13.4565 16.1502C12.5315 16.1502 11.2565 17.1565 10.6253 18.0752C10.2253 18.294 9.37529 18.7564 8.4753 19.2502C8.13155 19.4377 7.7753 19.6377 7.4378 19.819L7.36911 19.7438C5.58162 17.8376 2.27538 16.4876 2.41288 13.9251C2.46288 12.9938 2.78788 10.5376 8.76292 7.5626C13.6567 5.1251 17.5754 5.79385 18.2566 7.28135C19.2253 9.40635 16.1628 13.3563 11.0754 13.9251C9.13792 14.1438 8.11911 13.3938 7.86292 13.1126C7.59418 12.8188 7.55668 12.8063 7.45668 12.8626C7.29418 12.9501 7.39418 13.2126 7.45668 13.3688C7.60668 13.7626 8.23167 14.4626 9.29417 14.8126C10.2254 15.1188 12.5004 15.2876 15.2504 14.2251C18.3316 13.0313 20.7379 9.71885 20.0316 6.9501C19.3129 4.13135 14.6379 3.20635 10.2192 4.7751C7.58786 5.7126 4.73787 7.1751 2.68788 9.09385C0.250392 11.3688 -0.137106 13.3563 0.025393 14.1813C0.594203 17.1251 4.65037 19.0438 6.27537 20.4626C6.19412 20.5063 6.11912 20.55 6.05037 20.5876C5.23787 20.9875 2.14413 22.6063 1.36914 24.3188C0.494141 26.2563 1.50664 27.6501 2.18163 27.8376C4.26913 28.4188 6.40662 27.3751 7.56286 25.6563C8.7128 23.9376 8.57536 21.7063 8.04411 20.6876L8.0253 20.6501L8.6628 20.2751C9.07536 20.0313 9.48161 19.8063 9.83779 19.6125C9.63786 20.1563 9.49404 20.8 9.41911 21.7375C9.33161 22.8376 9.7816 24.2625 10.3754 24.825C10.6379 25.0687 10.9504 25.075 11.1441 25.075C11.8316 25.075 12.1441 24.5062 12.4878 23.825C12.9128 22.9938 13.2878 22.0313 13.2878 22.0313C13.2878 22.0313 12.8191 24.6375 14.1003 24.6375C14.5691 24.6375 15.0378 24.0313 15.2503 23.7188V23.725C15.2503 23.725 15.2628 23.7063 15.2878 23.6625C15.3141 23.6238 15.3391 23.5842 15.3628 23.5438V23.5313C15.5503 23.2063 15.9691 22.4626 16.5941 21.2313C17.4003 19.6438 18.1753 17.6563 18.1753 17.6563C18.1753 17.6563 18.2503 18.1438 18.4816 18.9438C18.619 19.4189 18.919 19.9376 19.1503 20.4438C18.9628 20.7063 18.8503 20.8564 18.8503 20.8564L18.8565 20.8627C18.7066 21.0627 18.5378 21.2752 18.3628 21.4877C17.7253 22.2502 16.9628 23.119 16.8628 23.369C16.7441 23.6627 16.7691 23.8814 17.0003 24.0565C17.1691 24.1815 17.4691 24.2064 17.7878 24.1815C18.3628 24.1439 18.7628 24.0002 18.9628 23.9127C19.2753 23.8002 19.6316 23.6314 19.9753 23.3814C20.6003 22.919 20.9816 22.2627 20.9441 21.3877C20.9253 20.9065 20.7691 20.4315 20.5753 19.9815C20.6316 19.9002 20.6879 19.8189 20.7441 19.7315C21.7316 18.2877 22.4941 16.7002 22.4941 16.7002C22.4941 16.7002 22.5691 17.1877 22.8003 17.9877C22.919 18.394 23.1566 18.8378 23.3691 19.2753C22.4441 20.0315 21.8628 20.9065 21.6628 21.4815C21.2941 22.544 21.5816 23.0253 22.1253 23.1378C22.369 23.1878 22.7191 23.0753 22.9815 22.9628C23.3065 22.8565 23.7002 22.6752 24.0628 22.4065C24.6878 21.944 25.2878 21.3003 25.2565 20.4315C25.2378 20.0315 25.1315 19.6378 24.9878 19.2628C25.7753 18.9378 26.794 18.7503 28.0878 18.9065C30.869 19.2315 31.419 20.969 31.3128 21.694C31.2066 22.4191 30.6253 22.819 30.4315 22.944C30.2378 23.0628 30.1753 23.1066 30.194 23.194C30.219 23.3253 30.3065 23.319 30.4753 23.2941C30.7065 23.2565 31.9378 22.7003 31.9878 21.3629C32.0628 19.6439 30.4315 17.7689 27.5378 17.7876V17.7876ZM6.08787 25.0188C5.16912 26.0251 3.87538 26.4063 3.32538 26.0813C2.73163 25.7376 2.96282 24.2563 4.09413 23.1876C4.78162 22.5376 5.67537 21.9376 6.26287 21.5688C6.39412 21.4876 6.59412 21.3689 6.83162 21.2251C6.86912 21.2002 6.89412 21.1876 6.89412 21.1876C6.93787 21.1626 6.98787 21.1313 7.03787 21.1001C7.45661 22.6251 7.05662 23.9626 6.08787 25.0188V25.0188ZM12.8066 20.4501C12.4878 21.2313 11.8128 23.2376 11.4066 23.1251C11.0565 23.0313 10.8441 21.5126 11.3378 20.0126C11.5878 19.2563 12.119 18.3563 12.4315 18.0063C12.9378 17.4438 13.4878 17.2563 13.6253 17.4875C13.7878 17.7876 13.0066 19.9626 12.8066 20.4501ZM18.3503 23.1001C18.2128 23.1689 18.0878 23.2188 18.0316 23.1814C17.9878 23.1564 18.0878 23.0627 18.0878 23.0627C18.0878 23.0627 18.7815 22.3189 19.0565 21.9752C19.2128 21.7752 19.4003 21.544 19.6003 21.2814V21.3564C19.6003 22.2563 18.7378 22.8563 18.3503 23.1001ZM22.6252 22.1251C22.5252 22.0501 22.5378 21.8188 22.8752 21.0938C23.0066 20.8063 23.3065 20.3251 23.8252 19.8688C23.8877 20.0563 23.9253 20.2375 23.919 20.4063C23.9128 21.5313 23.1128 21.9501 22.6252 22.1251Z" fill="#754FFE"/>
</g>
<defs>
<clipPath id="clip0_7568_237">
<rect width="32" height="24" fill="white" transform="translate(0 4)"/>
</clipPath>
</defs>
</svg>
