<svg width="32" height="32" viewBox="0 0 32 32" fill="none" xmlns="http://www.w3.org/2000/svg">
<g clip-path="url(#clip0_7568_250)">
<path d="M18.1 0.87C16.94 -0.29 15.06 -0.29 13.9 0.87L8.094 6.678L16 14.586L23.908 6.678L18.098 0.87H18.1ZM25.32 8.092L17.416 16L25.324 23.908L31.132 18.098C32.292 16.938 32.292 15.06 31.132 13.902L25.324 8.092H25.32ZM23.908 25.32L16 17.416L8.092 25.324L13.902 31.132C15.062 32.292 16.94 32.292 18.098 31.132L23.908 25.324V25.32ZM6.68 23.908L14.584 16L6.678 8.092L0.87 13.902C-0.29 15.062 -0.29 16.94 0.87 18.098L6.68 23.908Z" fill="#754FFE"/>
</g>
<defs>
<clipPath id="clip0_7568_250">
<rect width="32" height="32" fill="white"/>
</clipPath>
</defs>
</svg>
